<?xml version="1.0" encoding="UTF-8"?> <svg xmlns="http://www.w3.org/2000/svg" width="295" height="97" viewBox="0 0 295 97" fill="none"> <path d="M7.808 61V16.2H23.872C27.6267 16.2 30.848 16.7973 33.536 17.992C36.224 19.1867 38.2933 20.9147 39.744 23.176C41.1947 25.3947 41.92 28.104 41.92 31.304C41.92 34.4187 41.1947 37.1067 39.744 39.368C38.2933 41.6293 36.224 43.3573 33.536 44.552C30.848 45.7467 27.6267 46.344 23.872 46.344H9.6L11.072 44.808V61H7.808ZM11.072 45L9.6 43.4H23.872C28.6933 43.4 32.3413 42.3547 34.816 40.264C37.3333 38.1307 38.592 35.144 38.592 31.304C38.592 27.4213 37.3333 24.4347 34.816 22.344C32.3413 20.2107 28.6933 19.144 23.872 19.144H9.6L11.072 17.544V45ZM43.195 61L63.803 16.2H67.067L87.675 61H84.155L64.699 18.248H66.107L46.715 61H43.195ZM50.747 48.392L51.835 45.64H78.651L79.739 48.392H50.747ZM95.808 61V16.2H99.072V58.056H124.864V61H95.808ZM133.246 61V16.2H135.998L156.798 52.104H155.326L176.062 16.2H178.75L178.814 61H175.614L175.55 21.128H176.446L156.798 55.048H155.198L135.486 21.128H136.446V61H133.246ZM194.433 61V16.2H197.697V61H194.433ZM216.188 36.808H240.444V39.688H216.188V36.808ZM216.572 58.056H244.22V61H213.308V16.2H243.26V19.144H216.572V58.056ZM256.121 61V16.2H272.185C275.939 16.2 279.161 16.7973 281.849 17.992C284.537 19.1867 286.606 20.9147 288.057 23.176C289.507 25.3947 290.233 28.104 290.233 31.304C290.233 34.4187 289.507 37.1067 288.057 39.368C286.606 41.5867 284.537 43.3147 281.849 44.552C279.161 45.7467 275.939 46.344 272.185 46.344H257.913L259.385 44.808V61H256.121ZM287.225 61L275.577 44.744H279.289L290.937 61H287.225ZM259.385 45L257.913 43.464H272.185C277.006 43.464 280.654 42.3973 283.129 40.264C285.646 38.1307 286.905 35.144 286.905 31.304C286.905 27.4213 285.646 24.4347 283.129 22.344C280.654 20.2107 277.006 19.144 272.185 19.144H257.913L259.385 17.544V45Z" fill="#6A8149"></path> <path d="M62.52 92.1C61.48 92.1 60.5133 91.9267 59.62 91.58C58.74 91.22 57.9733 90.72 57.32 90.08C56.6667 89.44 56.16 88.6933 55.8 87.84C55.44 86.9733 55.26 86.0267 55.26 85C55.26 83.9733 55.44 83.0333 55.8 82.18C56.16 81.3133 56.6667 80.56 57.32 79.92C57.9867 79.28 58.76 78.7867 59.64 78.44C60.52 78.08 61.48 77.9 62.52 77.9C63.5067 77.9 64.4267 78.06 65.28 78.38C66.1467 78.7 66.8867 79.1867 67.5 79.84L66.86 80.5C66.26 79.9133 65.5933 79.4933 64.86 79.24C64.14 78.9733 63.3733 78.84 62.56 78.84C61.6667 78.84 60.8333 78.9933 60.06 79.3C59.3 79.6067 58.6333 80.04 58.06 80.6C57.5 81.16 57.06 81.8133 56.74 82.56C56.4333 83.3067 56.28 84.12 56.28 85C56.28 85.88 56.4333 86.6933 56.74 87.44C57.06 88.1867 57.5 88.84 58.06 89.4C58.6333 89.96 59.3 90.3933 60.06 90.7C60.8333 91.0067 61.6667 91.16 62.56 91.16C63.3733 91.16 64.14 91.0333 64.86 90.78C65.5933 90.5133 66.26 90.08 66.86 89.48L67.5 90.14C66.8867 90.7933 66.1467 91.2867 65.28 91.62C64.4267 91.94 63.5067 92.1 62.52 92.1ZM68.2863 92L74.7263 78H75.7463L82.1863 92H81.0863L75.0063 78.64H75.4463L69.3863 92H68.2863ZM70.6463 88.06L70.9863 87.2H79.3663L79.7063 88.06H70.6463ZM83.7542 92.1C83.5942 92.1 83.4342 92.0867 83.2742 92.06C83.1276 92.0467 82.9542 92.02 82.7542 91.98L82.8742 91.04C83.1009 91.0933 83.3209 91.12 83.5342 91.12C84.1476 91.12 84.6409 90.88 85.0142 90.4C85.4009 89.92 85.6942 89.1667 85.8942 88.14C86.0942 87.1 86.2276 85.7467 86.2942 84.08L86.4942 78H95.6742V92H94.6542V78.6L94.9542 78.92H87.1342L87.4342 78.6L87.2342 84.06C87.1809 85.4733 87.0809 86.6867 86.9342 87.7C86.7876 88.7 86.5742 89.5267 86.2942 90.18C86.0276 90.8333 85.6809 91.32 85.2542 91.64C84.8409 91.9467 84.3409 92.1 83.7542 92.1ZM106.719 92.1C105.679 92.1 104.713 91.9267 103.819 91.58C102.939 91.22 102.166 90.72 101.499 90.08C100.846 89.4267 100.339 88.6733 99.9792 87.82C99.6192 86.9533 99.4392 86.0133 99.4392 85C99.4392 83.9867 99.6192 83.0533 99.9792 82.2C100.339 81.3333 100.846 80.58 101.499 79.94C102.166 79.2867 102.939 78.7867 103.819 78.44C104.713 78.08 105.679 77.9 106.719 77.9C107.759 77.9 108.719 78.08 109.599 78.44C110.493 78.7867 111.266 79.28 111.919 79.92C112.573 80.56 113.079 81.3133 113.439 82.18C113.813 83.0333 113.999 83.9733 113.999 85C113.999 86.0267 113.813 86.9733 113.439 87.84C113.079 88.6933 112.573 89.44 111.919 90.08C111.266 90.72 110.493 91.22 109.599 91.58C108.719 91.9267 107.759 92.1 106.719 92.1ZM106.719 91.16C107.613 91.16 108.439 91.0067 109.199 90.7C109.959 90.3933 110.619 89.96 111.179 89.4C111.739 88.84 112.173 88.1867 112.479 87.44C112.799 86.6933 112.959 85.88 112.959 85C112.959 84.1067 112.799 83.2933 112.479 82.56C112.173 81.8133 111.739 81.16 111.179 80.6C110.619 80.04 109.959 79.6067 109.199 79.3C108.439 78.9933 107.613 78.84 106.719 78.84C105.826 78.84 104.999 78.9933 104.239 79.3C103.479 79.6067 102.813 80.04 102.239 80.6C101.679 81.16 101.239 81.8133 100.919 82.56C100.613 83.2933 100.459 84.1067 100.459 85C100.459 85.88 100.613 86.6933 100.919 87.44C101.239 88.1867 101.679 88.84 102.239 89.4C102.813 89.96 103.479 90.3933 104.239 90.7C104.999 91.0067 105.826 91.16 106.719 91.16ZM128.15 78H129.17V92H128.15V78ZM118.79 92H117.77V78H118.79V92ZM128.27 85.34H118.67V84.44H128.27V85.34ZM149.072 92L143.412 84.96L144.272 84.46L150.272 92H149.072ZM139.352 92V78H140.372V92H139.352ZM140.032 85.36V84.44H144.292V85.36H140.032ZM144.332 85.1L143.392 84.9L148.772 78H149.912L144.332 85.1ZM152.77 92V78H157.79C158.963 78 159.97 78.1867 160.81 78.56C161.65 78.9333 162.297 79.4733 162.75 80.18C163.203 80.8733 163.43 81.72 163.43 82.72C163.43 83.6933 163.203 84.5333 162.75 85.24C162.297 85.9467 161.65 86.4867 160.81 86.86C159.97 87.2333 158.963 87.42 157.79 87.42H153.33L153.79 86.94V92H152.77ZM153.79 87L153.33 86.5H157.79C159.297 86.5 160.437 86.1733 161.21 85.52C161.997 84.8533 162.39 83.92 162.39 82.72C162.39 81.5067 161.997 80.5733 161.21 79.92C160.437 79.2533 159.297 78.92 157.79 78.92H153.33L153.79 78.42V87ZM163.853 92L170.293 78H171.313L177.753 92H176.653L170.573 78.64H171.013L164.953 92H163.853ZM166.213 88.06L166.553 87.2H174.933L175.273 88.06H166.213ZM186.465 92.1C185.425 92.1 184.459 91.9267 183.565 91.58C182.685 91.22 181.919 90.72 181.265 90.08C180.612 89.44 180.105 88.6933 179.745 87.84C179.385 86.9733 179.205 86.0267 179.205 85C179.205 83.9733 179.385 83.0333 179.745 82.18C180.105 81.3133 180.612 80.56 181.265 79.92C181.932 79.28 182.705 78.7867 183.585 78.44C184.465 78.08 185.425 77.9 186.465 77.9C187.452 77.9 188.372 78.06 189.225 78.38C190.092 78.7 190.832 79.1867 191.445 79.84L190.805 80.5C190.205 79.9133 189.539 79.4933 188.805 79.24C188.085 78.9733 187.319 78.84 186.505 78.84C185.612 78.84 184.779 78.9933 184.005 79.3C183.245 79.6067 182.579 80.04 182.005 80.6C181.445 81.16 181.005 81.8133 180.685 82.56C180.379 83.3067 180.225 84.12 180.225 85C180.225 85.88 180.379 86.6933 180.685 87.44C181.005 88.1867 181.445 88.84 182.005 89.4C182.579 89.96 183.245 90.3933 184.005 90.7C184.779 91.0067 185.612 91.16 186.505 91.16C187.319 91.16 188.085 91.0333 188.805 90.78C189.539 90.5133 190.205 90.08 190.805 89.48L191.445 90.14C190.832 90.7933 190.092 91.2867 189.225 91.62C188.372 91.94 187.452 92.1 186.465 92.1ZM200.45 92.1C199.41 92.1 198.443 91.9267 197.55 91.58C196.67 91.22 195.896 90.72 195.23 90.08C194.576 89.4267 194.07 88.6733 193.71 87.82C193.35 86.9533 193.17 86.0133 193.17 85C193.17 83.9867 193.35 83.0533 193.71 82.2C194.07 81.3333 194.576 80.58 195.23 79.94C195.896 79.2867 196.67 78.7867 197.55 78.44C198.443 78.08 199.41 77.9 200.45 77.9C201.49 77.9 202.45 78.08 203.33 78.44C204.223 78.7867 204.996 79.28 205.65 79.92C206.303 80.56 206.81 81.3133 207.17 82.18C207.543 83.0333 207.73 83.9733 207.73 85C207.73 86.0267 207.543 86.9733 207.17 87.84C206.81 88.6933 206.303 89.44 205.65 90.08C204.996 90.72 204.223 91.22 203.33 91.58C202.45 91.9267 201.49 92.1 200.45 92.1ZM200.45 91.16C201.343 91.16 202.17 91.0067 202.93 90.7C203.69 90.3933 204.35 89.96 204.91 89.4C205.47 88.84 205.903 88.1867 206.21 87.44C206.53 86.6933 206.69 85.88 206.69 85C206.69 84.1067 206.53 83.2933 206.21 82.56C205.903 81.8133 205.47 81.16 204.91 80.6C204.35 80.04 203.69 79.6067 202.93 79.3C202.17 78.9933 201.343 78.84 200.45 78.84C199.556 78.84 198.73 78.9933 197.97 79.3C197.21 79.6067 196.543 80.04 195.97 80.6C195.41 81.16 194.97 81.8133 194.65 82.56C194.343 83.2933 194.19 84.1067 194.19 85C194.19 85.88 194.343 86.6933 194.65 87.44C194.97 88.1867 195.41 88.84 195.97 89.4C196.543 89.96 197.21 90.3933 197.97 90.7C198.73 91.0067 199.556 91.16 200.45 91.16ZM214.025 92V78.6L214.325 78.92H208.985V78H220.085V78.92H214.745L215.045 78.6V92H214.025ZM228.429 83.12C230.069 83.12 231.322 83.4867 232.189 84.22C233.056 84.9533 233.489 86.04 233.489 87.48C233.489 88.96 233.029 90.0867 232.109 90.86C231.202 91.62 229.889 92 228.169 92H222.809V78H223.829V83.12H228.429ZM228.189 91.14C229.589 91.14 230.649 90.8333 231.369 90.22C232.089 89.6067 232.449 88.7 232.449 87.5C232.449 86.3133 232.089 85.4333 231.369 84.86C230.662 84.2733 229.602 83.98 228.189 83.98H223.829V91.14H228.189ZM236.069 92V78H237.089V92H236.069Z" fill="#6A8149"></path> </svg> 